  0
SECTION
  2
HEADER
  9
$ACADVER
  1
AC1009
  9
$EXTMIN
 10
0.0
 20
0.0
 30
0.0
  9
$EXTMAX
 10
1000.0
 20
1000.0
 30
0.0
  9
$FILLMODE
 70
 0
  9
$SPLFRAME
 70
 1
  0
ENDSEC
  0
SECTION
  2
TABLES
  0
TABLE
  2
LAYER
 70
1
  0
LAYER
  2
0
 70
     0
 62
     7
  6
CONTINUOUS
  0
ENDTAB
  0
ENDSEC
  0
SECTION
  2
ENTITIES
  0
LINE
  8
0
 62
     0
 10
0.0950846
 20
114.373
 30
0.0
 11
76.2953
 21
114.373
 31
0.0
  0
LINE
  8
0
 62
     0
 10
76.2953
 20
114.373
 30
0.0
 11
76.2953
 21
0.0730359
 31
0.0
  0
LINE
  8
0
 62
     0
 10
76.2953
 20
0.0730359
 30
0.0
 11
0.0950846
 21
0.0730359
 31
0.0
  0
LINE
  8
0
 62
     0
 10
0.0950846
 20
0.0730359
 30
0.0
 11
0.0950846
 21
114.373
 31
0.0
  0
LINE
  8
0
 62
     0
 10
12.1447
 20
16.5999
 30
0.0
 11
12.1447
 21
11.898
 31
0.0
  0
LINE
  8
0
 62
     0
 10
12.1447
 20
11.898
 30
0.0
 11
10.5695
 21
11.898
 31
0.0
  0
LINE
  8
0
 62
     0
 10
10.5695
 20
11.898
 30
0.0
 11
10.5695
 21
15.1295
 31
0.0
  0
LINE
  8
0
 62
     0
 10
10.5695
 20
15.1295
 30
0.0
 11
8.89522
 21
15.1295
 31
0.0
  0
LINE
  8
0
 62
     0
 10
8.89522
 20
15.1295
 30
0.0
 11
8.89522
 21
16.0514
 31
0.0
  0
LINE
  8
0
 62
     0
 10
8.89522
 20
16.0514
 30
0.0
 11
5.59484
 21
16.0514
 31
0.0
  0
LINE
  8
0
 62
     0
 10
5.59484
 20
16.0514
 30
0.0
 11
5.59484
 21
15.1295
 31
0.0
  0
LINE
  8
0
 62
     0
 10
5.59484
 20
15.1295
 30
0.0
 11
3.91915
 21
15.1295
 31
0.0
  0
LINE
  8
0
 62
     0
 10
3.91915
 20
15.1295
 30
0.0
 11
3.91915
 21
11.898
 31
0.0
  0
LINE
  8
0
 62
     0
 10
3.91915
 20
11.898
 30
0.0
 11
3.04409
 21
11.898
 31
0.0
  0
LINE
  8
0
 62
     0
 10
3.04409
 20
11.898
 30
0.0
 11
3.04409
 21
9.0992
 31
0.0
  0
LINE
  8
0
 62
     0
 10
3.04409
 20
9.0992
 30
0.0
 11
3.91915
 21
9.0992
 31
0.0
  0
LINE
  8
0
 62
     0
 10
3.91915
 20
9.0992
 30
0.0
 11
3.91915
 21
2.82911
 31
0.0
  0
LINE
  8
0
 62
     0
 10
3.91915
 20
2.82911
 30
0.0
 11
5.59484
 21
2.82911
 31
0.0
  0
LINE
  8
0
 62
     0
 10
5.59484
 20
2.82911
 30
0.0
 11
5.59484
 21
1.8507
 31
0.0
  0
LINE
  8
0
 62
     0
 10
5.59484
 20
1.8507
 30
0.0
 11
8.89522
 21
1.8507
 31
0.0
  0
LINE
  8
0
 62
     0
 10
8.89522
 20
1.8507
 30
0.0
 11
8.89522
 21
2.82911
 31
0.0
  0
LINE
  8
0
 62
     0
 10
8.89522
 20
2.82911
 30
0.0
 11
10.5695
 21
2.82911
 31
0.0
  0
LINE
  8
0
 62
     0
 10
10.5695
 20
2.82911
 30
0.0
 11
10.5695
 21
7.29947
 31
0.0
  0
LINE
  8
0
 62
     0
 10
10.5695
 20
7.29947
 30
0.0
 11
12.1447
 21
7.29947
 31
0.0
  0
LINE
  8
0
 62
     0
 10
12.1447
 20
7.29947
 30
0.0
 11
12.1447
 21
2.60036
 31
0.0
  0
LINE
  8
0
 62
     0
 10
12.1447
 20
2.60036
 30
0.0
 11
26.1441
 21
2.60036
 31
0.0
  0
LINE
  8
0
 62
     0
 10
26.1441
 20
2.60036
 30
0.0
 11
26.1441
 21
7.29947
 31
0.0
  0
LINE
  8
0
 62
     0
 10
26.1441
 20
7.29947
 30
0.0
 11
27.7192
 21
7.29947
 31
0.0
  0
LINE
  8
0
 62
     0
 10
27.7192
 20
7.29947
 30
0.0
 11
27.7192
 21
2.82911
 31
0.0
  0
LINE
  8
0
 62
     0
 10
27.7192
 20
2.82911
 30
0.0
 11
29.3949
 21
2.82911
 31
0.0
  0
LINE
  8
0
 62
     0
 10
29.3949
 20
2.82911
 30
0.0
 11
29.3949
 21
1.8507
 31
0.0
  0
LINE
  8
0
 62
     0
 10
29.3949
 20
1.8507
 30
0.0
 11
32.6953
 21
1.8507
 31
0.0
  0
LINE
  8
0
 62
     0
 10
32.6953
 20
1.8507
 30
0.0
 11
32.6953
 21
2.82911
 31
0.0
  0
LINE
  8
0
 62
     0
 10
32.6953
 20
2.82911
 30
0.0
 11
34.3697
 21
2.82911
 31
0.0
  0
LINE
  8
0
 62
     0
 10
34.3697
 20
2.82911
 30
0.0
 11
34.3697
 21
9.0992
 31
0.0
  0
LINE
  8
0
 62
     0
 10
34.3697
 20
9.0992
 30
0.0
 11
35.2447
 21
9.0992
 31
0.0
  0
LINE
  8
0
 62
     0
 10
35.2447
 20
9.0992
 30
0.0
 11
35.2447
 21
11.898
 31
0.0
  0
LINE
  8
0
 62
     0
 10
35.2447
 20
11.898
 30
0.0
 11
34.3697
 21
11.898
 31
0.0
  0
LINE
  8
0
 62
     0
 10
34.3697
 20
11.898
 30
0.0
 11
34.3697
 21
15.1295
 31
0.0
  0
LINE
  8
0
 62
     0
 10
34.3697
 20
15.1295
 30
0.0
 11
32.6953
 21
15.1295
 31
0.0
  0
LINE
  8
0
 62
     0
 10
32.6953
 20
15.1295
 30
0.0
 11
32.6953
 21
16.0514
 31
0.0
  0
LINE
  8
0
 62
     0
 10
32.6953
 20
16.0514
 30
0.0
 11
29.3949
 21
16.0514
 31
0.0
  0
LINE
  8
0
 62
     0
 10
29.3949
 20
16.0514
 30
0.0
 11
29.3949
 21
15.1295
 31
0.0
  0
LINE
  8
0
 62
     0
 10
29.3949
 20
15.1295
 30
0.0
 11
27.7192
 21
15.1295
 31
0.0
  0
LINE
  8
0
 62
     0
 10
27.7192
 20
15.1295
 30
0.0
 11
27.7192
 21
11.898
 31
0.0
  0
LINE
  8
0
 62
     0
 10
27.7192
 20
11.898
 30
0.0
 11
26.1441
 21
11.898
 31
0.0
  0
LINE
  8
0
 62
     0
 10
26.1441
 20
11.898
 30
0.0
 11
26.1441
 21
16.5999
 31
0.0
  0
LINE
  8
0
 62
     0
 10
26.1441
 20
16.5999
 30
0.0
 11
12.1447
 21
16.5999
 31
0.0
  0
LINE
  8
0
 62
     0
 10
40.7197
 20
16.5999
 30
0.0
 11
54.719
 21
16.5999
 31
0.0
  0
LINE
  8
0
 62
     0
 10
54.719
 20
16.5999
 30
0.0
 11
54.719
 21
2.59898
 31
0.0
  0
LINE
  8
0
 62
     0
 10
54.719
 20
2.59898
 30
0.0
 11
40.7197
 21
2.59898
 31
0.0
  0
LINE
  8
0
 62
     0
 10
40.7197
 20
2.59898
 30
0.0
 11
40.7197
 21
16.5999
 31
0.0
  0
LINE
  8
0
 62
     0
 10
66.27
 20
35.2241
 30
0.0
 11
66.27
 21
34.3504
 31
0.0
  0
LINE
  8
0
 62
     0
 10
66.27
 20
34.3504
 30
0.0
 11
59.9997
 21
34.3504
 31
0.0
  0
LINE
  8
0
 62
     0
 10
59.9997
 20
34.3504
 30
0.0
 11
59.9997
 21
32.6747
 31
0.0
  0
LINE
  8
0
 62
     0
 10
59.9997
 20
32.6747
 30
0.0
 11
59.0201
 21
32.6747
 31
0.0
  0
LINE
  8
0
 62
     0
 10
59.0201
 20
32.6747
 30
0.0
 11
59.0201
 21
29.3729
 31
0.0
  0
LINE
  8
0
 62
     0
 10
59.0201
 20
29.3729
 30
0.0
 11
59.9997
 21
29.3729
 31
0.0
  0
LINE
  8
0
 62
     0
 10
59.9997
 20
29.3729
 30
0.0
 11
59.9997
 21
27.6986
 31
0.0
  0
LINE
  8
0
 62
     0
 10
59.9997
 20
27.6986
 30
0.0
 11
64.4701
 21
27.6986
 31
0.0
  0
LINE
  8
0
 62
     0
 10
64.4701
 20
27.6986
 30
0.0
 11
64.4701
 21
26.1235
 31
0.0
  0
LINE
  8
0
 62
     0
 10
64.4701
 20
26.1235
 30
0.0
 11
59.7697
 21
26.1235
 31
0.0
  0
LINE
  8
0
 62
     0
 10
59.7697
 20
26.1235
 30
0.0
 11
59.7697
 21
12.1254
 31
0.0
  0
LINE
  8
0
 62
     0
 10
59.7697
 20
12.1254
 30
0.0
 11
64.4701
 21
12.1254
 31
0.0
  0
LINE
  8
0
 62
     0
 10
64.4701
 20
12.1254
 30
0.0
 11
64.4701
 21
10.5489
 31
0.0
  0
LINE
  8
0
 62
     0
 10
64.4701
 20
10.5489
 30
0.0
 11
59.9997
 21
10.5489
 31
0.0
  0
LINE
  8
0
 62
     0
 10
59.9997
 20
10.5489
 30
0.0
 11
59.9997
 21
8.87317
 31
0.0
  0
LINE
  8
0
 62
     0
 10
59.9997
 20
8.87317
 30
0.0
 11
59.0201
 21
8.87317
 31
0.0
  0
LINE
  8
0
 62
     0
 10
59.0201
 20
8.87317
 30
0.0
 11
59.0201
 21
5.5728
 31
0.0
  0
LINE
  8
0
 62
     0
 10
59.0201
 20
5.5728
 30
0.0
 11
59.9997
 21
5.5728
 31
0.0
  0
LINE
  8
0
 62
     0
 10
59.9997
 20
5.5728
 30
0.0
 11
59.9997
 21
3.89848
 31
0.0
  0
LINE
  8
0
 62
     0
 10
59.9997
 20
3.89848
 30
0.0
 11
66.27
 21
3.89848
 31
0.0
  0
LINE
  8
0
 62
     0
 10
66.27
 20
3.89848
 30
0.0
 11
66.27
 21
3.02479
 31
0.0
  0
LINE
  8
0
 62
     0
 10
66.27
 20
3.02479
 30
0.0
 11
69.07
 21
3.02479
 31
0.0
  0
LINE
  8
0
 62
     0
 10
69.07
 20
3.02479
 30
0.0
 11
69.07
 21
3.89848
 31
0.0
  0
LINE
  8
0
 62
     0
 10
69.07
 20
3.89848
 30
0.0
 11
72.3
 21
3.89848
 31
0.0
  0
LINE
  8
0
 62
     0
 10
72.3
 20
3.89848
 30
0.0
 11
72.3
 21
5.5728
 31
0.0
  0
LINE
  8
0
 62
     0
 10
72.3
 20
5.5728
 30
0.0
 11
73.2194
 21
5.5728
 31
0.0
  0
LINE
  8
0
 62
     0
 10
73.2194
 20
5.5728
 30
0.0
 11
73.2194
 21
8.87317
 31
0.0
  0
LINE
  8
0
 62
     0
 10
73.2194
 20
8.87317
 30
0.0
 11
72.3
 21
8.87317
 31
0.0
  0
LINE
  8
0
 62
     0
 10
72.3
 20
8.87317
 30
0.0
 11
72.3
 21
10.5489
 31
0.0
  0
LINE
  8
0
 62
     0
 10
72.3
 20
10.5489
 30
0.0
 11
69.07
 21
10.5489
 31
0.0
  0
LINE
  8
0
 62
     0
 10
69.07
 20
10.5489
 30
0.0
 11
69.07
 21
12.1254
 31
0.0
  0
LINE
  8
0
 62
     0
 10
69.07
 20
12.1254
 30
0.0
 11
73.769
 21
12.1254
 31
0.0
  0
LINE
  8
0
 62
     0
 10
73.769
 20
12.1254
 30
0.0
 11
73.769
 21
26.1235
 31
0.0
  0
LINE
  8
0
 62
     0
 10
73.769
 20
26.1235
 30
0.0
 11
69.07
 21
26.1235
 31
0.0
  0
LINE
  8
0
 62
     0
 10
69.07
 20
26.1235
 30
0.0
 11
69.07
 21
27.6986
 31
0.0
  0
LINE
  8
0
 62
     0
 10
69.07
 20
27.6986
 30
0.0
 11
72.3
 21
27.6986
 31
0.0
  0
LINE
  8
0
 62
     0
 10
72.3
 20
27.6986
 30
0.0
 11
72.3
 21
29.3729
 31
0.0
  0
LINE
  8
0
 62
     0
 10
72.3
 20
29.3729
 30
0.0
 11
73.2194
 21
29.3729
 31
0.0
  0
LINE
  8
0
 62
     0
 10
73.2194
 20
29.3729
 30
0.0
 11
73.2194
 21
32.6747
 31
0.0
  0
LINE
  8
0
 62
     0
 10
73.2194
 20
32.6747
 30
0.0
 11
72.3
 21
32.6747
 31
0.0
  0
LINE
  8
0
 62
     0
 10
72.3
 20
32.6747
 30
0.0
 11
72.3
 21
34.3504
 31
0.0
  0
LINE
  8
0
 62
     0
 10
72.3
 20
34.3504
 30
0.0
 11
69.07
 21
34.3504
 31
0.0
  0
LINE
  8
0
 62
     0
 10
69.07
 20
34.3504
 30
0.0
 11
69.07
 21
35.2241
 31
0.0
  0
LINE
  8
0
 62
     0
 10
69.07
 20
35.2241
 30
0.0
 11
66.27
 21
35.2241
 31
0.0
  0
LINE
  8
0
 62
     0
 10
2.61965
 20
35.6485
 30
0.0
 11
16.6192
 21
35.6485
 31
0.0
  0
LINE
  8
0
 62
     0
 10
16.6192
 20
35.6485
 30
0.0
 11
16.6192
 21
21.649
 31
0.0
  0
LINE
  8
0
 62
     0
 10
16.6192
 20
21.649
 30
0.0
 11
2.61965
 21
21.649
 31
0.0
  0
LINE
  8
0
 62
     0
 10
2.61965
 20
21.649
 30
0.0
 11
2.61965
 21
35.6485
 31
0.0
  0
LINE
  8
0
 62
     0
 10
21.6697
 20
35.6485
 30
0.0
 11
35.669
 21
35.6485
 31
0.0
  0
LINE
  8
0
 62
     0
 10
35.669
 20
35.6485
 30
0.0
 11
35.669
 21
21.649
 31
0.0
  0
LINE
  8
0
 62
     0
 10
35.669
 20
21.649
 30
0.0
 11
21.6697
 21
21.649
 31
0.0
  0
LINE
  8
0
 62
     0
 10
21.6697
 20
21.649
 30
0.0
 11
21.6697
 21
35.6485
 31
0.0
  0
LINE
  8
0
 62
     0
 10
40.7197
 20
35.6485
 30
0.0
 11
54.719
 21
35.6485
 31
0.0
  0
LINE
  8
0
 62
     0
 10
54.719
 20
35.6485
 30
0.0
 11
54.719
 21
21.649
 31
0.0
  0
LINE
  8
0
 62
     0
 10
54.719
 20
21.649
 30
0.0
 11
40.7197
 21
21.649
 31
0.0
  0
LINE
  8
0
 62
     0
 10
40.7197
 20
21.649
 30
0.0
 11
40.7197
 21
35.6485
 31
0.0
  0
LINE
  8
0
 62
     0
 10
2.61965
 20
54.6985
 30
0.0
 11
16.6192
 21
54.6985
 31
0.0
  0
LINE
  8
0
 62
     0
 10
16.6192
 20
54.6985
 30
0.0
 11
16.6192
 21
40.6989
 31
0.0
  0
LINE
  8
0
 62
     0
 10
16.6192
 20
40.6989
 30
0.0
 11
2.61965
 21
40.6989
 31
0.0
  0
LINE
  8
0
 62
     0
 10
2.61965
 20
40.6989
 30
0.0
 11
2.61965
 21
54.6985
 31
0.0
  0
LINE
  8
0
 62
     0
 10
21.6697
 20
54.6985
 30
0.0
 11
35.669
 21
54.6985
 31
0.0
  0
LINE
  8
0
 62
     0
 10
35.669
 20
54.6985
 30
0.0
 11
35.669
 21
40.6989
 31
0.0
  0
LINE
  8
0
 62
     0
 10
35.669
 20
40.6989
 30
0.0
 11
21.6697
 21
40.6989
 31
0.0
  0
LINE
  8
0
 62
     0
 10
21.6697
 20
40.6989
 30
0.0
 11
21.6697
 21
54.6985
 31
0.0
  0
LINE
  8
0
 62
     0
 10
40.7197
 20
54.6985
 30
0.0
 11
54.719
 21
54.6985
 31
0.0
  0
LINE
  8
0
 62
     0
 10
54.719
 20
54.6985
 30
0.0
 11
54.719
 21
40.6989
 31
0.0
  0
LINE
  8
0
 62
     0
 10
54.719
 20
40.6989
 30
0.0
 11
40.7197
 21
40.6989
 31
0.0
  0
LINE
  8
0
 62
     0
 10
40.7197
 20
40.6989
 30
0.0
 11
40.7197
 21
54.6985
 31
0.0
  0
LINE
  8
0
 62
     0
 10
66.27
 20
73.3242
 30
0.0
 11
66.27
 21
72.4503
 31
0.0
  0
LINE
  8
0
 62
     0
 10
66.27
 20
72.4503
 30
0.0
 11
59.9997
 21
72.4503
 31
0.0
  0
LINE
  8
0
 62
     0
 10
59.9997
 20
72.4503
 30
0.0
 11
59.9997
 21
70.776
 31
0.0
  0
LINE
  8
0
 62
     0
 10
59.9997
 20
70.776
 30
0.0
 11
59.0201
 21
70.776
 31
0.0
  0
LINE
  8
0
 62
     0
 10
59.0201
 20
70.776
 30
0.0
 11
59.0201
 21
67.473
 31
0.0
  0
LINE
  8
0
 62
     0
 10
59.0201
 20
67.473
 30
0.0
 11
59.9997
 21
67.473
 31
0.0
  0
LINE
  8
0
 62
     0
 10
59.9997
 20
67.473
 30
0.0
 11
59.9997
 21
65.7987
 31
0.0
  0
LINE
  8
0
 62
     0
 10
59.9997
 20
65.7987
 30
0.0
 11
64.4701
 21
65.7987
 31
0.0
  0
LINE
  8
0
 62
     0
 10
64.4701
 20
65.7987
 30
0.0
 11
64.4701
 21
64.2235
 31
0.0
  0
LINE
  8
0
 62
     0
 10
64.4701
 20
64.2235
 30
0.0
 11
59.7697
 21
64.2235
 31
0.0
  0
LINE
  8
0
 62
     0
 10
59.7697
 20
64.2235
 30
0.0
 11
59.7697
 21
50.2253
 31
0.0
  0
LINE
  8
0
 62
     0
 10
59.7697
 20
50.2253
 30
0.0
 11
64.4701
 21
50.2253
 31
0.0
  0
LINE
  8
0
 62
     0
 10
64.4701
 20
50.2253
 30
0.0
 11
64.4701
 21
48.6488
 31
0.0
  0
LINE
  8
0
 62
     0
 10
64.4701
 20
48.6488
 30
0.0
 11
59.9997
 21
48.6488
 31
0.0
  0
LINE
  8
0
 62
     0
 10
59.9997
 20
48.6488
 30
0.0
 11
59.9997
 21
46.9731
 31
0.0
  0
LINE
  8
0
 62
     0
 10
59.9997
 20
46.9731
 30
0.0
 11
59.0201
 21
46.9731
 31
0.0
  0
LINE
  8
0
 62
     0
 10
59.0201
 20
46.9731
 30
0.0
 11
59.0201
 21
43.6728
 31
0.0
  0
LINE
  8
0
 62
     0
 10
59.0201
 20
43.6728
 30
0.0
 11
59.9997
 21
43.6728
 31
0.0
  0
LINE
  8
0
 62
     0
 10
59.9997
 20
43.6728
 30
0.0
 11
59.9997
 21
41.9985
 31
0.0
  0
LINE
  8
0
 62
     0
 10
59.9997
 20
41.9985
 30
0.0
 11
66.27
 21
41.9985
 31
0.0
  0
LINE
  8
0
 62
     0
 10
66.27
 20
41.9985
 30
0.0
 11
66.27
 21
41.1247
 31
0.0
  0
LINE
  8
0
 62
     0
 10
66.27
 20
41.1247
 30
0.0
 11
69.07
 21
41.1247
 31
0.0
  0
LINE
  8
0
 62
     0
 10
69.07
 20
41.1247
 30
0.0
 11
69.07
 21
41.9985
 31
0.0
  0
LINE
  8
0
 62
     0
 10
69.07
 20
41.9985
 30
0.0
 11
72.3
 21
41.9985
 31
0.0
  0
LINE
  8
0
 62
     0
 10
72.3
 20
41.9985
 30
0.0
 11
72.3
 21
43.6728
 31
0.0
  0
LINE
  8
0
 62
     0
 10
72.3
 20
43.6728
 30
0.0
 11
73.2194
 21
43.6728
 31
0.0
  0
LINE
  8
0
 62
     0
 10
73.2194
 20
43.6728
 30
0.0
 11
73.2194
 21
46.9731
 31
0.0
  0
LINE
  8
0
 62
     0
 10
73.2194
 20
46.9731
 30
0.0
 11
72.3
 21
46.9731
 31
0.0
  0
LINE
  8
0
 62
     0
 10
72.3
 20
46.9731
 30
0.0
 11
72.3
 21
48.6488
 31
0.0
  0
LINE
  8
0
 62
     0
 10
72.3
 20
48.6488
 30
0.0
 11
69.07
 21
48.6488
 31
0.0
  0
LINE
  8
0
 62
     0
 10
69.07
 20
48.6488
 30
0.0
 11
69.07
 21
50.2253
 31
0.0
  0
LINE
  8
0
 62
     0
 10
69.07
 20
50.2253
 30
0.0
 11
73.769
 21
50.2253
 31
0.0
  0
LINE
  8
0
 62
     0
 10
73.769
 20
50.2253
 30
0.0
 11
73.769
 21
64.2235
 31
0.0
  0
LINE
  8
0
 62
     0
 10
73.769
 20
64.2235
 30
0.0
 11
69.07
 21
64.2235
 31
0.0
  0
LINE
  8
0
 62
     0
 10
69.07
 20
64.2235
 30
0.0
 11
69.07
 21
65.7987
 31
0.0
  0
LINE
  8
0
 62
     0
 10
69.07
 20
65.7987
 30
0.0
 11
72.3
 21
65.7987
 31
0.0
  0
LINE
  8
0
 62
     0
 10
72.3
 20
65.7987
 30
0.0
 11
72.3
 21
67.473
 31
0.0
  0
LINE
  8
0
 62
     0
 10
72.3
 20
67.473
 30
0.0
 11
73.2194
 21
67.473
 31
0.0
  0
LINE
  8
0
 62
     0
 10
73.2194
 20
67.473
 30
0.0
 11
73.2194
 21
70.776
 31
0.0
  0
LINE
  8
0
 62
     0
 10
73.2194
 20
70.776
 30
0.0
 11
72.3
 21
70.776
 31
0.0
  0
LINE
  8
0
 62
     0
 10
72.3
 20
70.776
 30
0.0
 11
72.3
 21
72.4503
 31
0.0
  0
LINE
  8
0
 62
     0
 10
72.3
 20
72.4503
 30
0.0
 11
69.07
 21
72.4503
 31
0.0
  0
LINE
  8
0
 62
     0
 10
69.07
 20
72.4503
 30
0.0
 11
69.07
 21
73.3242
 31
0.0
  0
LINE
  8
0
 62
     0
 10
69.07
 20
73.3242
 30
0.0
 11
66.27
 21
73.3242
 31
0.0
  0
LINE
  8
0
 62
     0
 10
2.61965
 20
73.7485
 30
0.0
 11
16.6192
 21
73.7485
 31
0.0
  0
LINE
  8
0
 62
     0
 10
16.6192
 20
73.7485
 30
0.0
 11
16.6192
 21
59.7489
 31
0.0
  0
LINE
  8
0
 62
     0
 10
16.6192
 20
59.7489
 30
0.0
 11
2.61965
 21
59.7489
 31
0.0
  0
LINE
  8
0
 62
     0
 10
2.61965
 20
59.7489
 30
0.0
 11
2.61965
 21
73.7485
 31
0.0
  0
LINE
  8
0
 62
     0
 10
21.6697
 20
73.7485
 30
0.0
 11
35.669
 21
73.7485
 31
0.0
  0
LINE
  8
0
 62
     0
 10
35.669
 20
73.7485
 30
0.0
 11
35.669
 21
59.7489
 31
0.0
  0
LINE
  8
0
 62
     0
 10
35.669
 20
59.7489
 30
0.0
 11
21.6697
 21
59.7489
 31
0.0
  0
LINE
  8
0
 62
     0
 10
21.6697
 20
59.7489
 30
0.0
 11
21.6697
 21
73.7485
 31
0.0
  0
LINE
  8
0
 62
     0
 10
40.7197
 20
73.7485
 30
0.0
 11
54.719
 21
73.7485
 31
0.0
  0
LINE
  8
0
 62
     0
 10
54.719
 20
73.7485
 30
0.0
 11
54.719
 21
59.7489
 31
0.0
  0
LINE
  8
0
 62
     0
 10
54.719
 20
59.7489
 30
0.0
 11
40.7197
 21
59.7489
 31
0.0
  0
LINE
  8
0
 62
     0
 10
40.7197
 20
59.7489
 30
0.0
 11
40.7197
 21
73.7485
 31
0.0
  0
LINE
  8
0
 62
     0
 10
2.61965
 20
92.7985
 30
0.0
 11
16.6192
 21
92.7985
 31
0.0
  0
LINE
  8
0
 62
     0
 10
16.6192
 20
92.7985
 30
0.0
 11
16.6192
 21
78.7989
 31
0.0
  0
LINE
  8
0
 62
     0
 10
16.6192
 20
78.7989
 30
0.0
 11
2.61965
 21
78.7989
 31
0.0
  0
LINE
  8
0
 62
     0
 10
2.61965
 20
78.7989
 30
0.0
 11
2.61965
 21
92.7985
 31
0.0
  0
LINE
  8
0
 62
     0
 10
21.6697
 20
92.7985
 30
0.0
 11
35.669
 21
92.7985
 31
0.0
  0
LINE
  8
0
 62
     0
 10
35.669
 20
92.7985
 30
0.0
 11
35.669
 21
78.7989
 31
0.0
  0
LINE
  8
0
 62
     0
 10
35.669
 20
78.7989
 30
0.0
 11
21.6697
 21
78.7989
 31
0.0
  0
LINE
  8
0
 62
     0
 10
21.6697
 20
78.7989
 30
0.0
 11
21.6697
 21
92.7985
 31
0.0
  0
LINE
  8
0
 62
     0
 10
40.7197
 20
92.7985
 30
0.0
 11
54.719
 21
92.7985
 31
0.0
  0
LINE
  8
0
 62
     0
 10
54.719
 20
92.7985
 30
0.0
 11
54.719
 21
78.7989
 31
0.0
  0
LINE
  8
0
 62
     0
 10
54.719
 20
78.7989
 30
0.0
 11
40.7197
 21
78.7989
 31
0.0
  0
LINE
  8
0
 62
     0
 10
40.7197
 20
78.7989
 30
0.0
 11
40.7197
 21
92.7985
 31
0.0
  0
LINE
  8
0
 62
     0
 10
59.7697
 20
92.7985
 30
0.0
 11
73.769
 21
92.7985
 31
0.0
  0
LINE
  8
0
 62
     0
 10
73.769
 20
92.7985
 30
0.0
 11
73.769
 21
78.7989
 31
0.0
  0
LINE
  8
0
 62
     0
 10
73.769
 20
78.7989
 30
0.0
 11
59.7697
 21
78.7989
 31
0.0
  0
LINE
  8
0
 62
     0
 10
59.7697
 20
78.7989
 30
0.0
 11
59.7697
 21
92.7985
 31
0.0
  0
LINE
  8
0
 62
     0
 10
2.61965
 20
111.849
 30
0.0
 11
16.6192
 21
111.849
 31
0.0
  0
LINE
  8
0
 62
     0
 10
16.6192
 20
111.849
 30
0.0
 11
16.6192
 21
97.8489
 31
0.0
  0
LINE
  8
0
 62
     0
 10
16.6192
 20
97.8489
 30
0.0
 11
2.61965
 21
97.8489
 31
0.0
  0
LINE
  8
0
 62
     0
 10
2.61965
 20
97.8489
 30
0.0
 11
2.61965
 21
111.849
 31
0.0
  0
LINE
  8
0
 62
     0
 10
21.6697
 20
111.849
 30
0.0
 11
35.669
 21
111.849
 31
0.0
  0
LINE
  8
0
 62
     0
 10
35.669
 20
111.849
 30
0.0
 11
35.669
 21
97.8489
 31
0.0
  0
LINE
  8
0
 62
     0
 10
35.669
 20
97.8489
 30
0.0
 11
21.6697
 21
97.8489
 31
0.0
  0
LINE
  8
0
 62
     0
 10
21.6697
 20
97.8489
 30
0.0
 11
21.6697
 21
111.849
 31
0.0
  0
LINE
  8
0
 62
     0
 10
40.7197
 20
111.849
 30
0.0
 11
54.719
 21
111.849
 31
0.0
  0
LINE
  8
0
 62
     0
 10
54.719
 20
111.849
 30
0.0
 11
54.719
 21
97.8489
 31
0.0
  0
LINE
  8
0
 62
     0
 10
54.719
 20
97.8489
 30
0.0
 11
40.7197
 21
97.8489
 31
0.0
  0
LINE
  8
0
 62
     0
 10
40.7197
 20
97.8489
 30
0.0
 11
40.7197
 21
111.849
 31
0.0
  0
LINE
  8
0
 62
     0
 10
59.7697
 20
111.849
 30
0.0
 11
73.769
 21
111.849
 31
0.0
  0
LINE
  8
0
 62
     0
 10
73.769
 20
111.849
 30
0.0
 11
73.769
 21
97.8489
 31
0.0
  0
LINE
  8
0
 62
     0
 10
73.769
 20
97.8489
 30
0.0
 11
59.7697
 21
97.8489
 31
0.0
  0
LINE
  8
0
 62
     0
 10
59.7697
 20
97.8489
 30
0.0
 11
59.7697
 21
111.849
 31
0.0
  0
ENDSEC
  0
EOF
