<?xml version="1.0"?>
<!-- Generated by SVGo -->
<svg width="86.202mm" height="124.302mm"
     viewBox="0.000 0.000 86.202 124.302"
     xmlns="http://www.w3.org/2000/svg" 
     xmlns:xlink="http://www.w3.org/1999/xlink">
<polygon points="81.202,119.302 5.001,119.302 5.001,5.001 81.202,5.001" style="fill:none;stroke-width:0.050000mm;stroke:black"/>
<polygon points="17.051,102.775 17.051,107.476 15.476,107.476 15.476,104.245 13.801,104.245 13.801,103.325 10.501,103.325 10.501,104.245 8.826,104.245 8.826,107.476 7.950,107.476 7.950,110.275 8.826,110.275 8.826,116.545 10.501,116.545 10.501,117.525 13.801,117.525 13.801,116.545 15.476,116.545 15.476,112.075 17.051,112.075 17.051,116.775 31.051,116.775 31.051,112.075 32.626,112.075 32.626,116.545 34.301,116.545 34.301,117.525 37.601,117.525 37.601,116.545 39.276,116.545 39.276,110.275 40.151,110.275 40.151,107.476 39.276,107.476 39.276,104.245 37.601,104.245 37.601,103.325 34.301,103.325 34.301,104.245 32.626,104.245 32.626,107.476 31.051,107.476 31.051,102.775" style="fill:none;stroke-width:0.050000mm;stroke:black"/>
<polygon points="45.626,102.775 45.626,116.775 59.626,116.775 59.626,102.775" style="fill:none;stroke-width:0.050000mm;stroke:black"/>
<polygon points="71.176,84.151 71.176,85.026 64.906,85.026 64.906,86.701 63.926,86.701 63.926,90.001 64.906,90.001 64.906,91.676 69.376,91.676 69.376,93.251 64.676,93.251 64.676,107.251 69.376,107.251 69.376,108.826 64.906,108.826 64.906,110.501 63.926,110.501 63.926,113.801 64.906,113.801 64.906,115.476 71.176,115.476 71.176,116.351 73.976,116.351 73.976,115.476 77.206,115.476 77.206,113.801 78.126,113.801 78.126,110.501 77.206,110.501 77.206,108.826 73.976,108.826 73.976,107.251 78.676,107.251 78.676,93.251 73.976,93.251 73.976,91.676 77.206,91.676 77.206,90.001 78.126,90.001 78.126,86.701 77.206,86.701 77.206,85.026 73.976,85.026 73.976,84.151" style="fill:none;stroke-width:0.050000mm;stroke:black"/>
<polygon points="7.526,83.726 7.526,97.726 21.526,97.726 21.526,83.726" style="fill:none;stroke-width:0.050000mm;stroke:black"/>
<polygon points="26.576,83.726 26.576,97.726 40.576,97.726 40.576,83.726" style="fill:none;stroke-width:0.050000mm;stroke:black"/>
<polygon points="45.626,83.726 45.626,97.726 59.626,97.726 59.626,83.726" style="fill:none;stroke-width:0.050000mm;stroke:black"/>
<polygon points="7.526,64.676 7.526,78.676 21.526,78.676 21.526,64.676" style="fill:none;stroke-width:0.050000mm;stroke:black"/>
<polygon points="26.576,64.676 26.576,78.676 40.576,78.676 40.576,64.676" style="fill:none;stroke-width:0.050000mm;stroke:black"/>
<polygon points="45.626,64.676 45.626,78.676 59.626,78.676 59.626,64.676" style="fill:none;stroke-width:0.050000mm;stroke:black"/>
<polygon points="71.176,46.051 71.176,46.926 64.906,46.926 64.906,48.600 63.926,48.600 63.926,51.901 64.906,51.901 64.906,53.576 69.376,53.576 69.376,55.151 64.676,55.151 64.676,69.151 69.376,69.151 69.376,70.726 64.906,70.726 64.906,72.401 63.926,72.401 63.926,75.701 64.906,75.701 64.906,77.376 71.176,77.376 71.176,78.251 73.976,78.251 73.976,77.376 77.206,77.376 77.206,75.701 78.126,75.701 78.126,72.401 77.206,72.401 77.206,70.726 73.976,70.726 73.976,69.151 78.676,69.151 78.676,55.151 73.976,55.151 73.976,53.576 77.206,53.576 77.206,51.901 78.126,51.901 78.126,48.600 77.206,48.600 77.206,46.926 73.976,46.926 73.976,46.051" style="fill:none;stroke-width:0.050000mm;stroke:black"/>
<polygon points="7.526,45.626 7.526,59.626 21.526,59.626 21.526,45.626" style="fill:none;stroke-width:0.050000mm;stroke:black"/>
<polygon points="26.576,45.626 26.576,59.626 40.576,59.626 40.576,45.626" style="fill:none;stroke-width:0.050000mm;stroke:black"/>
<polygon points="45.626,45.626 45.626,59.626 59.626,59.626 59.626,45.626" style="fill:none;stroke-width:0.050000mm;stroke:black"/>
<polygon points="7.526,26.576 7.526,40.576 21.526,40.576 21.526,26.576" style="fill:none;stroke-width:0.050000mm;stroke:black"/>
<polygon points="26.576,26.576 26.576,40.576 40.576,40.576 40.576,26.576" style="fill:none;stroke-width:0.050000mm;stroke:black"/>
<polygon points="45.626,26.576 45.626,40.576 59.626,40.576 59.626,26.576" style="fill:none;stroke-width:0.050000mm;stroke:black"/>
<polygon points="64.676,26.576 64.676,40.576 78.676,40.576 78.676,26.576" style="fill:none;stroke-width:0.050000mm;stroke:black"/>
<polygon points="7.526,7.526 7.526,21.526 21.526,21.526 21.526,7.526" style="fill:none;stroke-width:0.050000mm;stroke:black"/>
<polygon points="26.576,7.526 26.576,21.526 40.576,21.526 40.576,7.526" style="fill:none;stroke-width:0.050000mm;stroke:black"/>
<polygon points="45.626,7.526 45.626,21.526 59.626,21.526 59.626,7.526" style="fill:none;stroke-width:0.050000mm;stroke:black"/>
<polygon points="64.676,7.526 64.676,21.526 78.676,21.526 78.676,7.526" style="fill:none;stroke-width:0.050000mm;stroke:black"/>
</svg>
